<svg xmlns="http://www.w3.org/2000/svg" version="1.1" xmlns:xlink="http://www.w3.org/1999/xlink" xmlns:svgjs="http://svgjs.com/svgjs" width="1000" height="1000"><rect width="1000" height="1000" rx="500" ry="500" fill="#ffffff"></rect><g transform="matrix(3.8461538461538463,0,0,3.8461538461538463,-0.007936624380249668,-7.908829909104554)"><svg xmlns="http://www.w3.org/2000/svg" version="1.1" xmlns:xlink="http://www.w3.org/1999/xlink" xmlns:svgjs="http://svgjs.com/svgjs" width="260" height="260"><svg id="a" xmlns="http://www.w3.org/2000/svg" viewBox="0 0 260 260"><path d="M115.77,198.71c-8.44-1.6-17.13-2.4-25.26-4.99-15.57-4.96-22.76-16.32-20.62-32.32,3.49-26.19,12.26-50.57,26.89-72.68,2.37-3.59,5.17-6.95,8.15-10.06,11.41-11.94,23.53-14.95,38.67-8.51,19.14,8.14,33.67,21.78,42.65,40.58,7.07,14.81,4.35,30.11-1.31,44.56-9.67,24.69-28.83,37.67-54.66,41.37-4.72,.67-9.52,.84-14.28,1.25l-.22,.81Zm13.7-31.66l.17-.61c5.22-.42,10.48-.6,15.67-1.31,9.09-1.24,17.86-3.61,25.38-9.21,6.73-5.01,8.3-11.42,4.22-18.69-1.86-3.31-4.27-6.52-7.07-9.06-14.66-13.32-31.87-21.99-50.95-27.04-8.74-2.32-15.45,.79-20.49,7.9-5.74,8.1-9.02,17.19-9.9,27.05-1.25,14.03,4.41,22.96,18.03,26.74,8.09,2.25,16.63,2.88,24.96,4.23Z"></path></svg></svg></g></svg>